<svg xmlns="http://www.w3.org/2000/svg" viewBox="0 0 3840 2160" preserveAspectRatio="xMidYMid slice">
<defs>
<radialGradient id="bg" cx="50%" cy="48%" r="75%"><stop offset="0" stop-color="#07162b"/><stop offset=".48" stop-color="#020713"/><stop offset="1" stop-color="#000106"/></radialGradient>
<radialGradient id="moon" cx="68%" cy="35%" r="72%"><stop offset="0" stop-color="#eef5ff"/><stop offset=".22" stop-color="#aebed4"/><stop offset=".55" stop-color="#56677f"/><stop offset=".82" stop-color="#182333"/><stop offset="1" stop-color="#02050b"/></radialGradient>
<linearGradient id="logo" x1="0" y1="0" x2="0" y2="1"><stop stop-color="#fff"/><stop offset=".5" stop-color="#cfe3ff"/><stop offset="1" stop-color="#6da7ef"/></linearGradient>
<filter id="glow"><feGaussianBlur stdDeviation="28"/></filter><filter id="soft"><feGaussianBlur stdDeviation="70"/></filter>
<pattern id="stars" width="240" height="180" patternUnits="userSpaceOnUse"><circle cx="28" cy="31" r="2" fill="#fff"/><circle cx="112" cy="18" r="1.5" fill="#b9d9ff"/><circle cx="201" cy="76" r="2.5" fill="#fff"/><circle cx="74" cy="126" r="1.5" fill="#8dbaff"/><circle cx="226" cy="151" r="1.8" fill="#fff"/></pattern>
</defs>
<rect width="3840" height="2160" fill="url(#bg)"/>
<ellipse cx="920" cy="650" rx="1250" ry="230" fill="#0b4d91" opacity=".2" transform="rotate(-25 920 650)" filter="url(#soft)"/>
<ellipse cx="2850" cy="1550" rx="1300" ry="260" fill="#0a3d7b" opacity=".18" transform="rotate(-25 2850 1550)" filter="url(#soft)"/>
<rect width="3840" height="2160" fill="url(#stars)" opacity=".9"/>
<g opacity=".8"><circle cx="360" cy="250" r="6" fill="#fff"/><circle cx="3340" cy="300" r="5" fill="#b8dcff"/><circle cx="3520" cy="700" r="7" fill="#fff"/><circle cx="300" cy="1600" r="5" fill="#9ccaff"/><circle cx="3300" cy="1700" r="6" fill="#fff"/></g>
<circle cx="1920" cy="900" r="470" fill="#48a8ff" opacity=".22" filter="url(#glow)"/>
<circle cx="1920" cy="900" r="390" fill="url(#moon)" stroke="#9fc9ff" stroke-width="6"/>
<g fill="#0a101a" opacity=".3"><circle cx="1785" cy="770" r="60"/><circle cx="2005" cy="665" r="45"/><circle cx="2090" cy="890" r="78"/><circle cx="1850" cy="1035" r="54"/><circle cx="1700" cy="925" r="34"/></g>
<path d="M1920 510A390 390 0 0 1 1920 1290A285 390 0 0 0 1920 510Z" fill="#02050b" opacity=".55"/>
<g font-family="Arial,Helvetica,sans-serif" font-size="300" font-weight="700" letter-spacing="22" text-anchor="middle" fill="url(#logo)" stroke="#b9d7ff" stroke-width="2">
<text x="1870" y="1510">LUN</text><text x="2230" y="1510">O</text>
</g>
<circle cx="2230" cy="1418" r="136" fill="#030712"/>
<path d="M2230 1282A136 136 0 0 1 2230 1554A90 136 0 0 0 2230 1282Z" fill="url(#logo)"/>
</svg>